<svg width="516" height="493" viewBox="0 0 516 493" fill="none" xmlns="http://www.w3.org/2000/svg">
<circle cx="61.7198" cy="107.315" r="8.34052" fill="#31373D" fill-opacity="0.1"/>
<circle cx="96.194" cy="174.039" r="8.34052" fill="#31373D" fill-opacity="0.1"/>
<circle cx="96.194" cy="207.401" r="8.34052" fill="#31373D" fill-opacity="0.1"/>
<circle cx="96.194" cy="242.987" r="8.34052" fill="#31373D" fill-opacity="0.1"/>
<circle cx="96.194" cy="278.573" r="8.34052" fill="#31373D" fill-opacity="0.1"/>
<circle cx="234.091" cy="381.996" r="8.34052" fill="#31373D" fill-opacity="0.1"/>
<circle cx="96.194" cy="311.935" r="8.34052" fill="#31373D" fill-opacity="0.1"/>
<circle cx="234.091" cy="415.358" r="8.34052" fill="#31373D" fill-opacity="0.1"/>
<circle cx="96.194" cy="345.297" r="8.34052" fill="#31373D" fill-opacity="0.1"/>
<circle cx="234.091" cy="448.72" r="8.34052" fill="#31373D" fill-opacity="0.1"/>
<circle cx="96.194" cy="380.883" r="8.34052" fill="#31373D" fill-opacity="0.1"/>
<circle cx="130.668" cy="174.039" r="8.34052" fill="#31373D" fill-opacity="0.1"/>
<circle cx="130.668" cy="140.677" r="8.34052" fill="#31373D" fill-opacity="0.1"/>
<circle cx="130.668" cy="72.8405" r="8.34052" fill="#31373D" fill-opacity="0.1"/>
<circle cx="130.668" cy="207.401" r="8.34052" fill="#31373D" fill-opacity="0.1"/>
<circle cx="130.668" cy="242.987" r="8.34052" fill="#31373D" fill-opacity="0.1"/>
<circle cx="130.668" cy="278.573" r="8.34052" fill="#31373D" fill-opacity="0.1"/>
<circle cx="268.565" cy="381.996" r="8.34052" fill="#31373D" fill-opacity="0.1"/>
<circle cx="199.616" cy="278.573" r="8.34052" fill="#31373D" fill-opacity="0.1"/>
<circle cx="234.091" cy="75.0646" r="8.34052" fill="#31373D" fill-opacity="0.1"/>
<circle cx="234.091" cy="278.573" r="8.34052" fill="#31373D" fill-opacity="0.1"/>
<circle cx="268.565" cy="75.0646" r="8.34052" fill="#31373D" fill-opacity="0.1"/>
<circle cx="234.091" cy="311.935" r="8.34052" fill="#31373D" fill-opacity="0.1"/>
<circle cx="303.039" cy="311.935" r="8.34052" fill="#31373D" fill-opacity="0.1"/>
<circle cx="335.289" cy="311.935" r="8.34052" fill="#31373D" fill-opacity="0.1"/>
<circle cx="335.289" cy="345.297" r="8.34052" fill="#31373D" fill-opacity="0.1"/>
<circle cx="335.289" cy="380.883" r="8.34052" fill="#31373D" fill-opacity="0.1"/>
<circle cx="335.289" cy="278.573" r="8.34052" fill="#31373D" fill-opacity="0.1"/>
<circle cx="335.289" cy="242.987" r="8.34052" fill="#31373D" fill-opacity="0.1"/>
<circle cx="507.659" cy="311.935" r="8.34052" fill="#31373D" fill-opacity="0.1"/>
<circle cx="370.875" cy="207.401" r="8.34052" fill="#31373D" fill-opacity="0.1"/>
<circle cx="303.039" cy="380.883" r="8.34052" fill="#31373D" fill-opacity="0.1"/>
<circle cx="303.039" cy="278.573" r="8.34052" fill="#31373D" fill-opacity="0.1"/>
<circle cx="303.039" cy="242.987" r="6.11638" fill="#31373D" fill-opacity="0.1"/>
<circle cx="370.875" cy="345.298" r="6.11638" fill="#31373D" fill-opacity="0.1"/>
<circle cx="303.039" cy="207.401" r="3.89224" fill="#31373D" fill-opacity="0.1"/>
<circle cx="267.453" cy="242.987" r="3.89224" fill="#31373D" fill-opacity="0.1"/>
<circle cx="404.237" cy="242.987" r="3.89224" fill="#31373D" fill-opacity="0.1"/>
<circle cx="335.289" cy="207.401" r="3.89224" fill="#31373D" fill-opacity="0.1"/>
<circle cx="370.875" cy="311.935" r="8.34052" fill="#31373D" fill-opacity="0.1"/>
<circle cx="130.668" cy="311.935" r="8.34052" fill="#31373D" fill-opacity="0.1"/>
<circle cx="268.565" cy="415.358" r="8.34052" fill="#31373D" fill-opacity="0.1"/>
<circle cx="335.289" cy="105.091" r="8.34052" fill="#31373D" fill-opacity="0.1"/>
<circle cx="130.668" cy="345.297" r="8.34052" fill="#31373D" fill-opacity="0.1"/>
<circle cx="268.565" cy="448.72" r="8.34052" fill="#31373D" fill-opacity="0.1"/>
<circle cx="335.289" cy="138.453" r="8.34052" fill="#31373D" fill-opacity="0.1"/>
<circle cx="130.668" cy="380.883" r="8.34052" fill="#31373D" fill-opacity="0.1"/>
<circle cx="268.565" cy="484.306" r="8.34052" fill="#31373D" fill-opacity="0.1"/>
<circle cx="335.289" cy="174.039" r="8.34052" fill="#31373D" fill-opacity="0.1"/>
<circle cx="165.142" cy="380.883" r="8.34052" fill="#31373D" fill-opacity="0.1"/>
<circle cx="199.616" cy="311.935" r="12.7888" fill="#31373D" fill-opacity="0.1"/>
<circle cx="234.091" cy="108.427" r="12.7888" fill="#31373D" fill-opacity="0.1"/>
<circle cx="199.616" cy="207.401" r="12.7888" fill="#31373D" fill-opacity="0.1"/>
<circle cx="439.823" cy="207.401" r="12.7888" fill="#31373D" fill-opacity="0.1"/>
<circle cx="439.823" cy="345.297" r="12.7888" fill="#31373D" fill-opacity="0.1"/>
<circle cx="370.875" cy="242.987" r="12.7888" fill="#31373D" fill-opacity="0.1"/>
<circle cx="165.142" cy="174.039" r="8.34052" fill="#31373D" fill-opacity="0.1"/>
<circle cx="165.142" cy="140.677" r="8.34052" fill="#31373D" fill-opacity="0.1"/>
<circle cx="165.142" cy="72.8405" r="8.34052" fill="#31373D" fill-opacity="0.1"/>
<circle cx="165.142" cy="107.315" r="6.11638" fill="#31373D" fill-opacity="0.1"/>
<circle cx="130.668" cy="107.315" r="6.11638" fill="#31373D" fill-opacity="0.1"/>
<circle cx="96.194" cy="72.8405" r="6.11638" fill="#31373D" fill-opacity="0.1"/>
<circle cx="165.142" cy="38.3664" r="6.11638" fill="#31373D" fill-opacity="0.1"/>
<circle cx="199.616" cy="38.3664" r="6.11638" fill="#31373D" fill-opacity="0.1"/>
<circle cx="234.09" cy="140.677" r="6.11638" fill="#31373D" fill-opacity="0.1"/>
<circle cx="199.616" cy="3.89224" r="3.89224" fill="#31373D" fill-opacity="0.1"/>
<circle cx="199.616" cy="72.8405" r="8.34052" fill="#31373D" fill-opacity="0.1"/>
<circle cx="165.142" cy="207.401" r="8.34052" fill="#31373D" fill-opacity="0.1"/>
<circle cx="165.142" cy="242.987" r="8.34052" fill="#31373D" fill-opacity="0.1"/>
<circle cx="199.616" cy="174.039" r="8.34052" fill="#31373D" fill-opacity="0.1"/>
<circle cx="61.7198" cy="140.677" r="8.34052" fill="#31373D" fill-opacity="0.1"/>
<circle cx="61.7198" cy="174.039" r="8.34052" fill="#31373D" fill-opacity="0.1"/>
<circle cx="61.7198" cy="207.401" r="8.34052" fill="#31373D" fill-opacity="0.1"/>
<circle cx="61.7198" cy="278.573" r="8.34052" fill="#31373D" fill-opacity="0.1"/>
<circle cx="61.7198" cy="242.987" r="6.11638" fill="#31373D" fill-opacity="0.1"/>
<circle cx="31.694" cy="242.987" r="6.11638" fill="#31373D" fill-opacity="0.1"/>
<circle cx="61.7198" cy="311.935" r="5.00431" fill="#31373D" fill-opacity="0.1"/>
<circle cx="165.142" cy="345.297" r="5.00431" fill="#31373D" fill-opacity="0.1"/>
<circle cx="234.091" cy="345.297" r="5.00431" fill="#31373D" fill-opacity="0.1"/>
<circle cx="199.616" cy="380.884" r="3.89224" fill="#31373D" fill-opacity="0.1"/>
<circle cx="165.142" cy="278.573" r="3.89224" fill="#31373D" fill-opacity="0.1"/>
<circle cx="3.89224" cy="242.987" r="3.89224" fill="#31373D" fill-opacity="0.1"/>
<circle cx="96.194" cy="140.677" r="3.89224" fill="#31373D" fill-opacity="0.1"/>
<circle cx="234.091" cy="174.039" r="3.89224" fill="#31373D" fill-opacity="0.1"/>
</svg>
